Coordinates
version=1
nRows=29
nColumns=22
inDegrees=yes

Units are S.I. units (second, meters, Newtons, ...)
If the header above contains a line with 'inDegrees', this indicates whether rotational values are in degrees (yes) or radians (no).

endheader
time	pelvis_tilt	pelvis_list	pelvis_rotation	pelvis_tx	pelvis_ty	pelvis_tz	hip_flexion_r	hip_adduction_r	hip_rotation_r	knee_angle_r	ankle_angle_r	subtalar_angle_r	hip_flexion_l	hip_adduction_l	hip_rotation_l	knee_angle_l	ankle_angle_l	subtalar_angle_l	lumbar_extension	lumbar_bending	lumbar_rotation
      0.01000000	     -3.97515103	     -2.63364187	     -1.42419259	     -1.17016016	      0.95525212	      0.39164864	     10.08750052	      3.45993545	     -3.56886251	    -19.31565104	     13.00460545	     -1.12177934	      9.72646733	     -2.00513749	     -6.22505508	    -20.06263559	     12.95605254	     -7.65386999	     -2.79939504	      0.42777250	     -1.43281313
      0.02000000	     -3.97378065	     -2.64538057	     -1.42832511	     -1.17012912	      0.95523574	      0.39163847	     10.10944527	      3.46938164	     -3.58546195	    -19.35755837	     13.00687902	     -1.11769830	      9.74682492	     -2.01816609	     -6.21941211	    -20.10459907	     12.94947691	     -7.65734348	     -2.83809049	      0.44936990	     -1.41546426
      0.03000000	     -4.02457997	     -2.68692321	     -1.41544918	     -1.17011619	      0.95511675	      0.39161020	     10.18732037	      3.50944218	     -3.63053198	    -19.39851912	     13.01854910	     -1.08637871	      9.85496476	     -2.06609836	     -6.20119227	    -20.19938819	     12.98465345	     -7.68383109	     -2.81963491	      0.51073621	     -1.43464172
      0.04000000	     -4.06137754	     -2.71972380	     -1.40299497	     -1.17010775	      0.95502287	      0.39157242	     10.25512331	      3.54053426	     -3.65726037	    -19.45101226	     13.03135028	     -1.06419550	      9.94566563	     -2.10222167	     -6.17886387	    -20.28653120	     13.00167800	     -7.69555489	     -2.82358458	      0.56120207	     -1.44221751
      0.05000000	     -4.09956703	     -2.74957093	     -1.40129067	     -1.17008375	      0.95492437	      0.39155081	     10.32086709	      3.56997879	     -3.67654837	    -19.49647805	     13.03459017	     -1.04195890	     10.03714549	     -2.13526056	     -6.15404034	    -20.37898482	     13.02625675	     -7.70566147	     -2.82324689	      0.60974798	     -1.45823025
      0.06000000	     -4.12434539	     -2.77466082	     -1.40384663	     -1.17004063	      0.95484609	      0.39152375	     10.36958536	      3.59415600	     -3.68810878	    -19.53980471	     13.04341990	     -1.02503139	     10.10964503	     -2.16281875	     -6.14065260	    -20.46566966	     13.04580509	     -7.71162945	     -2.83540591	      0.65591766	     -1.46895193
      0.07000000	     -4.14326147	     -2.79832680	     -1.41493850	     -1.16998759	      0.95477961	      0.39151625	     10.40926110	      3.61908913	     -3.69116480	    -19.57948246	     13.04971889	     -1.00912650	     10.17351370	     -2.18986039	     -6.13146827	    -20.55130906	     13.06940670	     -7.71691303	     -2.85141083	      0.69862920	     -1.47794413
      0.08000000	     -4.15279835	     -2.81571694	     -1.43329504	     -1.16991353	      0.95472747	      0.39151337	     10.43575457	      3.63839405	     -3.68401523	    -19.61573233	     13.05560615	     -0.99662854	     10.21938458	     -2.20987792	     -6.13066660	    -20.62723078	     13.09022618	     -7.72014421	     -2.87224574	      0.73531634	     -1.48054140
      0.09000000	     -4.14602787	     -2.81859396	     -1.45695971	     -1.16982354	      0.95470892	      0.39151837	     10.44252884	      3.64308713	     -3.67056744	    -19.64941830	     13.05547478	     -0.99394807	     10.23422642	     -2.21117800	     -6.12191762	    -20.68192442	     13.09432245	     -7.72116711	     -2.90771274	      0.75291503	     -1.47946261
      0.10000000	     -4.14416767	     -2.83512110	     -1.49344636	     -1.16971544	      0.95467580	      0.39154270	     10.45058612	      3.66525405	     -3.64760446	    -19.67914679	     13.06583717	     -0.98647469	     10.25550548	     -2.23536481	     -6.15637643	    -20.74438061	     13.12890006	     -7.72697375	     -2.93060323	      0.78845994	     -1.46433422
      0.11000000	     -4.13428936	     -2.83428096	     -1.52554971	     -1.16960688	      0.95466620	      0.39155610	     10.45227313	      3.66759529	     -3.62952876	    -19.71269320	     13.06287910	     -0.98526616	     10.25544116	     -2.23349465	     -6.15763902	    -20.78368643	     13.13340914	     -7.72722999	     -2.95996050	      0.80188002	     -1.45838801
      0.12000000	     -4.11856272	     -2.83308367	     -1.57082234	     -1.16949451	      0.95466504	      0.39158593	     10.45026417	      3.67128169	     -3.60305531	    -19.75095636	     13.06453992	     -0.98533642	     10.24208357	     -2.23585535	     -6.18858917	    -20.81492334	     13.14858971	     -7.72946919	     -2.99401069	      0.81530685	     -1.43570242
      0.13000000	     -4.08783516	     -2.81723695	     -1.64863444	     -1.16930918	      0.95470355	      0.39165391	     10.41278505	      3.66706571	     -3.52660699	    -19.76047607	     13.07189884	     -0.98982948	     10.17941381	     -2.22985979	     -6.29056015	    -20.80104551	     13.16683796	     -7.72608506	     -3.03040445	      0.81210098	     -1.36585954
      0.14000000	     -4.08898526	     -2.81287244	     -1.67417556	     -1.16916566	      0.95469237	      0.39163708	     10.40886978	      3.66241752	     -3.52613209	    -19.76554950	     13.07143079	     -0.99048344	     10.17129608	     -2.22174688	     -6.29001500	    -20.80890593	     13.16626478	     -7.72565347	     -3.03167796	      0.82573595	     -1.36920536
      0.15000000	     -4.03245243	     -2.77402005	     -1.77272526	     -1.16899904	      0.95477335	      0.39173834	     10.35750984	      3.63485557	     -3.43201328	    -19.79528164	     13.08399270	     -1.00878018	     10.06130768	     -2.19254267	     -6.41289715	    -20.76302821	     13.17472808	     -7.72226050	     -3.10079922	      0.79007235	     -1.27329182
      0.16000000	     -3.99607182	     -2.75232753	     -1.83151920	     -1.16882819	      0.95482974	      0.39177371	     10.30647971	      3.61987427	     -3.36655448	    -19.78853140	     13.09278425	     -1.03021320	      9.98049590	     -2.17174801	     -6.47107141	    -20.72309386	     13.16589652	     -7.71713655	     -3.14201245	      0.77965124	     -1.23600684
      0.17000000	     -3.99887554	     -2.74810057	     -1.85308371	     -1.16869901	      0.95481345	      0.39175374	     10.30222972	      3.61360653	     -3.36655463	    -19.78758371	     13.09310696	     -1.03134633	      9.97269837	     -2.16455712	     -6.47210564	    -20.72731753	     13.16621946	     -7.71713719	     -3.13914190	      0.79195731	     -1.23973549
      0.18000000	     -3.96219997	     -2.70816657	     -1.93799553	     -1.16851995	      0.95486998	      0.39183945	     10.25209764	      3.58473362	     -3.26542895	    -19.78262733	     13.10767240	     -1.06926202	      9.87743612	     -2.13105302	     -6.57691406	    -20.66752364	     13.17422609	     -7.71840265	     -3.17732227	      0.75445032	     -1.16649562
      0.19000000	     -3.96602954	     -2.70470740	     -1.95677955	     -1.16840726	      0.95485483	      0.39181828	     10.24857287	      3.57880963	     -3.26479678	    -19.77991522	     13.10812501	     -1.07094155	      9.87140368	     -2.12496967	     -6.57792100	    -20.66960219	     13.17401378	     -7.71818301	     -3.17598020	      0.76745850	     -1.17201559
      0.20000000	     -3.93989752	     -2.68084449	     -2.02022713	     -1.16824373	      0.95489872	      0.39188924	     10.19883931	      3.56726800	     -3.17152255	    -19.75573029	     13.11548461	     -1.12804116	      9.79829892	     -2.10681114	     -6.65473463	    -20.62320297	     13.18441581	     -7.71633157	     -3.20377401	      0.74870943	     -1.13150132
      0.21000000	     -3.94391900	     -2.67820282	     -2.03618805	     -1.16813967	      0.95488439	      0.39187161	     10.19676110	      3.56241393	     -3.17115471	    -19.75544292	     13.11564657	     -1.13004096	      9.79370054	     -2.10203489	     -6.65505719	    -20.62575573	     13.18450038	     -7.71604701	     -3.20442424	      0.76128036	     -1.13810715
      0.22000000	     -3.92915943	     -2.67212575	     -2.07362502	     -1.16801632	      0.95490163	      0.39191149	     10.16735875	      3.56588679	     -3.10650305	    -19.74409708	     13.11959299	     -1.19361212	      9.75479395	     -2.10105014	     -6.70246494	    -20.60973131	     13.20858136	     -7.71313754	     -3.22553846	      0.76594981	     -1.13532299
      0.23000000	     -3.93409242	     -2.66996249	     -2.08775711	     -1.16793319	      0.95489037	      0.39189961	     10.16788656	      3.56281664	     -3.10631943	    -19.74417571	     13.11927775	     -1.19554692	      9.75326351	     -2.09635066	     -6.70197487	    -20.61119964	     13.20830510	     -7.71269677	     -3.23129223	      0.77742649	     -1.14115098
      0.24000000	     -3.93797074	     -2.66813802	     -2.10201052	     -1.16785069	      0.95487996	      0.39188763	     10.16940255	      3.56021016	     -3.10165315	    -19.74779826	     13.11864077	     -1.19865409	      9.75039962	     -2.09247111	     -6.70280906	    -20.61293825	     13.20936143	     -7.71250990	     -3.23825377	      0.79068633	     -1.15059572
      0.25000000	     -3.93483560	     -2.67130677	     -2.11607196	     -1.16778834	      0.95487464	      0.39190049	     10.17578710	      3.56855183	     -3.07006600	    -19.77527981	     13.11487949	     -1.21359516	      9.74188060	     -2.09700105	     -6.71219936	    -20.61524491	     13.21854704	     -7.71364207	     -3.25661178	      0.80603346	     -1.17594482
      0.26000000	     -3.93993516	     -2.66949589	     -2.12436964	     -1.16772186	      0.95486505	      0.39188707	     10.17762772	      3.56659670	     -3.06728841	    -19.77488877	     13.11462039	     -1.21609630	      9.74285313	     -2.09284480	     -6.71310545	    -20.61644630	     13.21993593	     -7.71385165	     -3.26600909	      0.81666032	     -1.17707568
      0.27000000	     -3.93426214	     -2.67479032	     -2.14390271	     -1.16767760	      0.95485792	      0.39190704	     10.18642454	      3.57723158	     -3.03212725	    -19.80899335	     13.10662548	     -1.23660496	      9.73755721	     -2.09980925	     -6.71905557	    -20.63051413	     13.23274288	     -7.71759374	     -3.29030792	      0.83356824	     -1.17883863
      0.28000000	     -3.93927759	     -2.67330739	     -2.15038227	     -1.16761073	      0.95484372	      0.39189225	     10.18780060	      3.57483627	     -3.02958412	    -19.80895720	     13.10538684	     -1.23959878	      9.73904680	     -2.09579990	     -6.72000388	    -20.63154065	     13.23423420	     -7.71802231	     -3.29867308	      0.84363343	     -1.17710050
      0.29000000	     -3.93253132	     -2.67871212	     -2.17146335	     -1.16757320	      0.95483398	      0.39192366	     10.19790539	      3.58514913	     -2.99695667	    -19.84604232	     13.08605370	     -1.26690014	      9.73592315	     -2.10292248	     -6.71794212	    -20.65246027	     13.24895090	     -7.72353159	     -3.32430714	      0.85567794	     -1.15476382
